<?xml version="1.0" encoding="utf-8"?>
<!-- Generator: Adobe Illustrator 25.4.1, SVG Export Plug-In . SVG Version: 6.00 Build 0)  -->
<svg version="1.1" id="Layer_1" xmlns="http://www.w3.org/2000/svg" xmlns:xlink="http://www.w3.org/1999/xlink" x="0px" y="0px"
	 viewBox="0 0 531 94" style="enable-background:new 0 0 531 94;" xml:space="preserve">
<style type="text/css">
	.st0{display:none;}
	.st1{fill:#414042;}
	.st2{fill:#F15A22;}
</style>
<g id="grid" class="st0">
</g>
<g id="grid_00000170984703353424339980000013867356608686070711_" class="st0">
</g>
<g id="Layer_1_00000110458227364649855700000012384356921434457476_">
	<g>
		<g>
			<path class="st1" d="M168.4,60.1c2.3,0,4.1-0.7,5.1-2c1.1-1.3,1.7-3.6,1.8-6.7v-1c0-3.5-0.6-6-1.7-7.5c-1.1-1.5-2.9-2.3-5.4-2.3
				c-2,0-3.6,0.8-4.8,2.5c-1.1,1.7-1.7,4.1-1.7,7.3c0,3.2,0.6,5.6,1.7,7.2C164.6,59.3,166.3,60.1,168.4,60.1 M165.2,67.2
				c-3.9,0-7-1.5-9.3-4.5s-3.4-7.1-3.4-12.4s1.1-9.5,3.4-12.5c2.3-3,5.4-4.5,9.5-4.5c4.2,0,7.4,1.6,9.7,4.8h0.3
				c-0.5-2.4-0.7-4.6-0.7-6.5V21.3h9.2v45.3h-7l-1.8-4.2h-0.4C172.6,65.6,169.4,67.2,165.2,67.2"/>
			<polygon class="st1" points="199.5,50 188.7,34.1 199.1,34.1 205.6,44.4 212.2,34.1 222.6,34.1 211.6,50 223.1,66.6 212.7,66.6 
				205.6,55.5 198.5,66.6 188.2,66.6 			"/>
			<polygon class="st1" points="237.6,66.6 228.5,66.6 228.5,24.1 253.6,24.1 253.6,31.5 237.6,31.5 237.6,42.4 252.5,42.4 
				252.5,49.8 237.6,49.8 			"/>
			<path class="st1" d="M273.4,39.8c-1.9,0-3.5,0.6-4.6,1.8c-1.1,1.2-1.7,2.9-1.9,5.1h12.8c0-2.2-0.6-3.9-1.8-5.1
				C276.9,40.4,275.4,39.8,273.4,39.8 M274.7,67.2c-5.4,0-9.6-1.4-12.7-4.3c-3-2.9-4.6-7-4.6-12.3c0-5.5,1.4-9.7,4.2-12.7
				c2.8-3,6.7-4.5,11.7-4.5c4.7,0,8.4,1.3,11.1,3.9c2.6,2.6,4,6.2,4,10.9v4.3h-21.6c0.1,2.5,0.9,4.5,2.3,5.9s3.5,2.1,6.1,2.1
				c2,0,3.9-0.2,5.7-0.6c1.8-0.4,3.7-1.1,5.6-2v6.9c-1.6,0.8-3.3,1.4-5.1,1.7C279.6,67,277.4,67.2,274.7,67.2"/>
			<path class="st1" d="M309.3,39.8c-1.9,0-3.5,0.6-4.6,1.8c-1.1,1.2-1.7,2.9-1.9,5.1h12.8c0-2.2-0.6-3.9-1.8-5.1
				C312.8,40.4,311.2,39.8,309.3,39.8 M310.6,67.2c-5.4,0-9.6-1.4-12.7-4.3c-3-2.9-4.6-7-4.6-12.3c0-5.5,1.4-9.7,4.2-12.7
				c2.8-3,6.7-4.5,11.7-4.5c4.7,0,8.4,1.3,11.1,3.9s4,6.2,4,10.9v4.3h-21.6c0.1,2.5,0.9,4.5,2.3,5.9s3.5,2.1,6.1,2.1
				c2,0,3.9-0.2,5.7-0.6s3.7-1.1,5.6-2v6.9c-1.6,0.8-3.3,1.4-5.1,1.7C315.4,67,313.2,67.2,310.6,67.2"/>
			<path class="st1" d="M345.5,60.1c2.3,0,4.1-0.7,5.1-2c1.1-1.3,1.7-3.6,1.8-6.7v-1c0-3.5-0.6-6-1.7-7.5s-2.9-2.3-5.4-2.3
				c-2,0-3.6,0.8-4.8,2.5c-1.1,1.7-1.7,4.1-1.7,7.3c0,3.2,0.6,5.6,1.7,7.2C341.8,59.3,343.4,60.1,345.5,60.1 M342.3,67.2
				c-3.9,0-7-1.5-9.3-4.5s-3.4-7.1-3.4-12.4s1.1-9.5,3.4-12.5s5.4-4.5,9.5-4.5c4.2,0,7.4,1.6,9.7,4.8h0.3c-0.5-2.4-0.7-4.6-0.7-6.5
				V21.3h9.2v45.3h-7l-1.8-4.2h-0.4C349.8,65.6,346.6,67.2,342.3,67.2"/>
		</g>
		<g>
			<path class="st2" d="M70.9,58.3l27.8,15.4l2.5,1.1c-1.3-0.1-1.7-0.2-2.8-0.2c-0.8,0-2,0-2.8,0s-1.7,0-2.5,0h-4.9h-2.5h-4.8h-2.5
				h-7.6v9.8h7.6h2.5h4.8h2.5h4.9h2.5h4.8h2.5h4.8h2.5h4.8h2.5h7.3v-7.3v-2.5v-4.8v-2.5v-4.8V60v-9.9H115v0.1V60v1.2v1.3v4.8v1.2
				v1.2V71L77.5,49.9h-6.8v8.4H70.9z"/>
			<path class="st1" d="M6.9,76.2l27.8-15.5l2.5-1.1c-1.3,0.1-1.7,0.2-2.8,0.2c-0.8,0-2,0-2.8,0c-0.8,0-1.7,0-2.5,0h-4.9h-2.5h-4.8
				h-2.5H6.8V50h7.6h2.5h4.8h2.5h4.9h2.5h4.8H39h4.8h2.5h4.8h2.5h7.3v7.3v2.5v4.8v2.5v4.8v2.5v9.9h-9.8v-0.1v-9.8v-1.2v-1.3v-4.8
				v-1.2v-1.2v-1.3L6.8,88.3v-3.8L6.9,76.2L6.9,76.2z"/>
			<path class="st2" d="M70.9,31.9l27.8-15.4l2.5-1.1c-1.3,0.1-1.7,0.2-2.8,0.2c-0.8,0-2,0-2.8,0s-1.7,0-2.5,0h-4.9h-2.5h-4.8h-2.5
				h-7.6V5.7h7.6h2.5h4.8h2.5h4.9h2.5h4.8h2.5h4.8h2.5h4.8h2.5h7.3V13v2.5v4.8v2.5v4.9v2.5v9.9H115V40v-9.8V29v-1.3v-4.8v-1.2v-1.2
				v-1.3L77.5,40.3h-6.8v-8.4H70.9z"/>
			<path class="st2" d="M61,31.9L33.2,16.4l-2.5-1.1c1.3,0.1,1.7,0.2,2.8,0.2c0.8,0,2,0,2.8,0s1.7,0,2.5,0h4.9h2.5H51h2.5h7.6V5.7
				h-7.6H51h-4.8h-2.5h-4.9h-2.5h-4.8H29h-4.8h-2.5h-4.8h-2.5H7.1V13v2.5v4.8v2.5v4.9v2.5v9.9h9.8V40v-9.8V29v-1.3v-4.8v-1.2v-1.2
				v-1.3l37.5,21.1h6.8v-8.4H61z"/>
		</g>
	</g>
</g>
<g id="grid_00000013178340658811644750000001504977939837877416_" class="st0">
</g>
<g>
	<path class="st1" d="M400.6,27.9c-3.6,0-6.4,1.3-8.3,4c-2,2.7-3,6.5-3,11.3c0,10,3.8,15,11.3,15c3.2,0,7-0.8,11.5-2.4v8
		c-3.7,1.5-7.8,2.3-12.4,2.3c-6.5,0-11.5-2-15-6c-3.5-4-5.2-9.7-5.2-17.1c0-4.7,0.9-8.8,2.6-12.3c1.7-3.5,4.1-6.2,7.3-8.1
		c3.2-1.9,6.9-2.8,11.2-2.8c4.4,0,8.8,1.1,13.2,3.2l-3.1,7.8c-1.7-0.8-3.4-1.5-5.1-2.1C403.9,28.2,402.2,27.9,400.6,27.9z"/>
	<path class="st1" d="M462.3,65.6l-3.3-10.7h-16.4l-3.3,10.7h-10.3L445,20.4h11.7l15.9,45.2H462.3z M456.8,46.9
		c-3-9.7-4.7-15.2-5.1-16.5s-0.7-2.3-0.8-3c-0.7,2.6-2.6,9.1-5.8,19.5H456.8z"/>
	<path class="st1" d="M507.8,34.6c0,4.8-1.5,8.5-4.5,11.1c-3,2.6-7.3,3.8-12.9,3.8h-4.1v16h-9.5v-45h14.4c5.5,0,9.6,1.2,12.4,3.5
		C506.4,26.5,507.8,30,507.8,34.6z M486.2,41.7h3.1c2.9,0,5.1-0.6,6.6-1.7c1.5-1.2,2.2-2.8,2.2-5.1c0-2.2-0.6-3.9-1.8-5
		c-1.2-1.1-3.1-1.6-5.7-1.6h-4.3V41.7z"/>
	<path class="st1" d="M514.7,65.6v-45h9.5v45H514.7z"/>
</g>
<g id="grid_00000014608538541042107590000005443652288493463471_" class="st0">
</g>
</svg>
